<svg width="34" height="34" viewBox="0 0 34 34" fill="none" xmlns="http://www.w3.org/2000/svg">
<g clip-path="url(#clip0_43_176)">
<path d="M16.7471 0C13.4469 0 10.2209 0.978614 7.4769 2.81209C4.73291 4.64557 2.59423 7.25156 1.33131 10.3005C0.0683869 13.3495 -0.262051 16.7045 0.381781 19.9412C1.02561 23.178 2.61479 26.1511 4.94837 28.4847C7.28194 30.8183 10.2551 32.4075 13.4918 33.0513C16.7286 33.6951 20.0836 33.3647 23.1326 32.1018C26.1815 30.8388 28.7875 28.7002 30.621 25.9562C32.4545 23.2122 33.4331 19.9861 33.4331 16.686C33.4331 12.2606 31.6751 8.01643 28.5459 4.8872C25.4166 1.75798 21.1725 0 16.7471 0V0ZM21.4938 10.859C21.4938 11.173 21.3621 11.2981 21.0547 11.2981C20.4641 11.2981 19.8735 11.2981 19.2851 11.3223C18.6967 11.3464 18.3762 11.6143 18.3762 12.229C18.363 12.8877 18.3762 13.5332 18.3762 14.205H20.9032C21.2633 14.205 21.3862 14.328 21.3862 14.6902C21.3862 15.5684 21.3862 16.451 21.3862 17.338C21.3862 17.6959 21.2721 17.8079 20.9098 17.8101H18.3542V24.9543C18.3542 25.3363 18.2357 25.4571 17.858 25.4571H15.1093C14.7777 25.4571 14.6482 25.3275 14.6482 24.996V17.821H12.4659C12.1234 17.821 12.0004 17.6959 12.0004 17.3512C12.0004 16.4627 12.0004 15.575 12.0004 14.688C12.0004 14.3455 12.1299 14.216 12.468 14.216H14.6482V12.2949C14.6223 11.432 14.8294 10.578 15.2476 9.82276C15.6823 9.06027 16.379 8.48143 17.2082 8.19368C17.7463 7.99788 18.3151 7.89973 18.8877 7.90387H21.0459C21.3555 7.90387 21.485 8.04 21.485 8.34298C21.496 9.18825 21.496 10.0247 21.4938 10.859Z" fill="#737373"/>
</g>
<defs>
<clipPath id="clip0_43_176">
<rect width="33.3719" height="33.3719" fill="white" transform="translate(0.0611572)"/>
</clipPath>
</defs>
</svg>
