<svg width="34" height="34" viewBox="0 0 34 34" fill="none" xmlns="http://www.w3.org/2000/svg">
<g clip-path="url(#clip0_43_170)">
<path d="M19.4266 13.8442H18.796C18.773 13.8442 18.7502 13.8488 18.729 13.8576C18.7077 13.8664 18.6884 13.8793 18.6721 13.8955C18.6559 13.9118 18.643 13.9311 18.6342 13.9524C18.6253 13.9736 18.6208 13.9964 18.6208 14.0194V16.4115L16.7811 13.9477C16.7571 13.9157 16.726 13.8897 16.6903 13.8717C16.6545 13.8538 16.615 13.8445 16.575 13.8445H15.9923C15.9693 13.8445 15.9466 13.849 15.9253 13.8578C15.904 13.8666 15.8847 13.8795 15.8685 13.8958C15.8522 13.9121 15.8393 13.9314 15.8305 13.9527C15.8217 13.9739 15.8172 13.9967 15.8172 14.0197V17.9985C15.8172 18.0449 15.8356 18.0895 15.8685 18.1223C15.9013 18.1552 15.9459 18.1736 15.9923 18.1737H16.6231C16.6695 18.1736 16.7141 18.1552 16.7469 18.1223C16.7798 18.0895 16.7983 18.0449 16.7983 17.9985V15.6288L18.6208 18.0698C18.6447 18.1019 18.6758 18.1279 18.7115 18.1458C18.7473 18.1637 18.7867 18.1731 18.8267 18.1731H19.4266C19.4731 18.1731 19.5177 18.1546 19.5506 18.1218C19.5834 18.0889 19.6019 18.0443 19.6019 17.9979V14.0191C19.6018 13.9727 19.5833 13.9282 19.5505 13.8954C19.5176 13.8626 19.4731 13.8442 19.4266 13.8442Z" fill="#737373"/>
<path d="M13.4634 17.1918H11.7209V14.019C11.721 13.9959 11.7164 13.9732 11.7076 13.9519C11.6988 13.9307 11.6859 13.9113 11.6697 13.8951C11.6534 13.8788 11.6341 13.8659 11.6128 13.8571C11.5916 13.8483 11.5688 13.8437 11.5458 13.8438H10.9151C10.8921 13.8437 10.8693 13.8483 10.848 13.8571C10.8268 13.8659 10.8075 13.8788 10.7912 13.8951C10.7749 13.9113 10.762 13.9307 10.7532 13.9519C10.7444 13.9732 10.7399 13.9959 10.7399 14.019V17.9977C10.7399 18.0442 10.7584 18.0887 10.7912 18.1216C10.8241 18.1544 10.8686 18.1729 10.9151 18.1729H13.4636C13.5101 18.1729 13.5546 18.1544 13.5875 18.1216C13.6204 18.0887 13.6388 18.0442 13.6389 17.9977V17.367C13.6389 17.344 13.6343 17.3212 13.6255 17.2999C13.6167 17.2786 13.6037 17.2593 13.5874 17.243C13.5711 17.2268 13.5518 17.2139 13.5305 17.2051C13.5092 17.1963 13.4864 17.1918 13.4634 17.1918Z" fill="#737373"/>
<path d="M14.3754 13.8438H15.006C15.0525 13.8437 15.0971 13.8622 15.1299 13.8951C15.1628 13.9279 15.1812 13.9725 15.1812 14.019V17.9977C15.1812 18.0442 15.1628 18.0887 15.1299 18.1216C15.0971 18.1544 15.0525 18.1729 15.006 18.1729H14.3754C14.3289 18.1729 14.2844 18.1544 14.2515 18.1216C14.2186 18.0887 14.2002 18.0441 14.2002 17.9976V14.019C14.2002 13.9725 14.2187 13.9279 14.2515 13.8951C14.2844 13.8622 14.329 13.8437 14.3754 13.8438Z" fill="#737373"/>
<path d="M16.886 0C7.67056 0 0.200012 7.47055 0.200012 16.686C0.200012 25.9014 7.67056 33.3719 16.886 33.3719C26.1014 33.3719 33.5719 25.9014 33.5719 16.686C33.5719 7.47055 26.1014 0 16.886 0ZM21.6055 22.605C19.1678 24.55 17.444 25.4311 16.5642 25.8029C16.5026 25.8289 16.435 25.8375 16.3687 25.8279C16.3025 25.8182 16.2402 25.7906 16.1885 25.7481C16.1369 25.7055 16.0978 25.6496 16.0757 25.5865C16.0535 25.5233 16.049 25.4553 16.0627 25.3898C16.1539 24.9448 16.2218 24.4954 16.2662 24.0433C16.2876 23.8328 16.2259 23.6224 16.0943 23.4568C15.9627 23.2912 15.7716 23.1836 15.5618 23.1568C11.1953 22.5977 7.76083 19.5579 7.76083 15.8487C7.76083 11.7395 11.8463 8.40848 16.886 8.40848C21.9256 8.40848 26.0111 11.7395 26.0111 15.8487C26.0111 18.6709 24.1548 20.5711 21.6055 22.605Z" fill="#737373"/>
<path d="M22.9533 13.8442H20.4048C20.3818 13.8442 20.359 13.8488 20.3378 13.8576C20.3165 13.8664 20.2972 13.8793 20.2809 13.8955C20.2646 13.9118 20.2517 13.9311 20.2429 13.9524C20.2341 13.9736 20.2296 13.9964 20.2296 14.0194V17.9982C20.2296 18.0447 20.248 18.0892 20.2809 18.1221C20.3138 18.1549 20.3583 18.1734 20.4048 18.1734H22.9533C22.9764 18.1734 22.9991 18.1689 23.0204 18.1601C23.0417 18.1512 23.061 18.1383 23.0773 18.1221C23.0935 18.1058 23.1065 18.0865 23.1153 18.0652C23.1241 18.0439 23.1286 18.0211 23.1286 17.9981V17.3672C23.1286 17.3442 23.1241 17.3214 23.1153 17.3001C23.1065 17.2789 23.0935 17.2596 23.0773 17.2433C23.061 17.227 23.0417 17.2141 23.0204 17.2053C22.9991 17.1965 22.9764 17.192 22.9533 17.192H21.2109V16.499H22.9533C22.9998 16.499 23.0444 16.4805 23.0772 16.4477C23.1101 16.4148 23.1286 16.3703 23.1286 16.3238V15.6931C23.1286 15.6701 23.1241 15.6473 23.1153 15.626C23.1065 15.6048 23.0935 15.5855 23.0773 15.5692C23.061 15.5529 23.0417 15.54 23.0204 15.5312C22.9991 15.5224 22.9764 15.5179 22.9533 15.5179H21.2109V14.825H22.9533C22.9764 14.825 22.9991 14.8205 23.0204 14.8117C23.0417 14.8028 23.061 14.7899 23.0773 14.7737C23.0935 14.7574 23.1065 14.7381 23.1153 14.7168C23.1241 14.6955 23.1286 14.6727 23.1286 14.6497V14.0191C23.1285 13.9727 23.11 13.9282 23.0772 13.8954C23.0443 13.8626 22.9998 13.8442 22.9533 13.8442Z" fill="#737373"/>
</g>
<defs>
<clipPath id="clip0_43_170">
<rect width="33.3719" height="33.3719" fill="white" transform="translate(0.200012)"/>
</clipPath>
</defs>
</svg>
