<svg width="33" height="32" viewBox="0 0 33 32" fill="none" xmlns="http://www.w3.org/2000/svg">
<g clip-path="url(#clip0_43_184)">
<path d="M20.0067 15.7971C20.0078 15.4233 19.9673 15.0505 19.8861 14.6856C19.6736 13.7164 19.1878 12.8285 18.4863 12.127C17.5143 11.1514 16.1933 10.6041 14.8162 10.6065L8.14454 10.6092C6.77088 10.6105 5.45374 11.1563 4.48181 12.127C2.45359 14.1526 2.45147 17.4389 4.47711 19.4671C5.44597 20.4427 6.76434 20.991 8.13932 20.9902H13.6444C13.744 20.9906 13.8396 20.9509 13.9096 20.8801C14.0535 20.7345 14.0522 20.4997 13.9065 20.3558L13.8017 20.2509C13.2246 19.6779 12.7651 18.9975 12.449 18.2481C12.3913 18.1096 12.2557 18.0196 12.1056 18.0201L8.14457 18.0227C6.91539 18.0227 5.91894 17.0262 5.91894 15.7971C5.91894 14.5679 6.91539 13.5714 8.14457 13.5714L14.8372 13.5741C16.0646 13.5748 17.0594 14.5697 17.0602 15.7971C17.0846 16.6005 17.7301 17.246 18.5335 17.2703C18.8897 17.2702 19.2341 17.1418 19.5034 16.9086C19.8229 16.6274 20.0062 16.2226 20.0067 15.7971Z" fill="#737373"/>
<path d="M30.1204 15.7971C30.1204 12.9305 27.7965 10.6066 24.9299 10.6066L19.4326 10.604C19.2812 10.6043 19.1453 10.6967 19.0892 10.8373C19.0323 10.9777 19.0666 11.1385 19.1757 11.2436L19.2727 11.3406C19.8481 11.9139 20.3059 12.5943 20.6201 13.3434C20.6779 13.4819 20.8135 13.5719 20.9635 13.5715L24.9088 13.5741C26.138 13.5741 27.1345 14.5705 27.1345 15.7997C27.1345 17.0289 26.138 18.0253 24.9088 18.0253L19.9936 18.0227L19.949 18.0253L18.2346 18.0201C17.0071 18.0193 16.0123 17.0245 16.0115 15.7971C15.9872 14.9937 15.3416 14.3481 14.5383 14.3238C14.1795 14.3242 13.8331 14.4545 13.5631 14.6908C13.2436 14.9719 13.0603 15.3767 13.0598 15.8023C13.0585 16.4104 13.165 17.0139 13.3743 17.5849C13.4032 17.6661 13.4373 17.7422 13.4687 17.8208C13.5002 17.8995 13.5395 17.9755 13.5736 18.0515C13.6076 18.1275 13.647 18.2035 13.6863 18.2743L13.799 18.4709C13.8777 18.602 13.9616 18.7278 14.0507 18.8536C14.1609 19.0023 14.279 19.145 14.4046 19.281L14.5881 19.4645L14.6038 19.4802L14.7794 19.6191C14.8397 19.6742 14.9131 19.7214 14.9813 19.7895L15.0704 19.8787L15.2775 20.0333L15.3771 20.1015L15.5606 20.2221L15.5895 20.2509C16.3951 20.7331 17.3165 20.9877 18.2555 20.9875L24.9298 20.9875C27.7965 20.9876 30.1204 18.6638 30.1204 15.7971Z" fill="#737373"/>
</g>
<defs>
<clipPath id="clip0_43_184">
<rect width="22.2479" height="22.2479" fill="white" transform="translate(16.5399 0.0666504) rotate(45)"/>
</clipPath>
</defs>
</svg>
