<svg width="34" height="34" viewBox="0 0 34 34" fill="none" xmlns="http://www.w3.org/2000/svg">
<g clip-path="url(#clip0_43_168)">
<path d="M16.8397 0C7.62427 0 0.153717 7.47055 0.153717 16.686C0.153717 25.9014 7.62427 33.3719 16.8397 33.3719C26.0551 33.3719 33.5256 25.9014 33.5256 16.686C33.5256 7.47055 26.0551 0 16.8397 0ZM25.5124 10.5549L22.5488 24.703C22.513 24.8742 22.4347 25.0335 22.3211 25.1665C22.2076 25.2995 22.0625 25.4018 21.8991 25.464C21.7358 25.5263 21.5593 25.5465 21.3861 25.5228C21.2129 25.499 21.0484 25.4322 20.9078 25.3283L16.5971 22.1436L13.9855 24.6073C13.9513 24.6396 13.911 24.6647 13.867 24.6812C13.823 24.6978 13.7762 24.7053 13.7292 24.7036C13.6822 24.7018 13.6361 24.6907 13.5935 24.6708C13.5509 24.651 13.5126 24.6229 13.481 24.5882L13.4248 24.5265L13.8786 20.1351L22.0576 12.6622C22.0981 12.6253 22.1232 12.5746 22.1281 12.52C22.133 12.4655 22.1173 12.4111 22.0841 12.3676C22.0508 12.3241 22.0025 12.2946 21.9486 12.285C21.8947 12.2754 21.8392 12.2863 21.7929 12.3156L11.333 18.9359L6.8281 17.4229C6.70831 17.3827 6.60392 17.3064 6.52923 17.2045C6.45454 17.1025 6.41322 16.98 6.41093 16.8536C6.40865 16.7273 6.44551 16.6034 6.51647 16.4988C6.58742 16.3942 6.68899 16.3142 6.80724 16.2696L24.4331 9.62988C24.569 9.57871 24.7163 9.56501 24.8593 9.59021C25.0024 9.61541 25.1361 9.67858 25.2464 9.77311C25.3567 9.86765 25.4396 9.99008 25.4864 10.1276C25.5332 10.2651 25.5421 10.4127 25.5124 10.5549Z" fill="#737373"/>
</g>
<defs>
<clipPath id="clip0_43_168">
<rect width="33.3719" height="33.3719" fill="white" transform="translate(0.153717)"/>
</clipPath>
</defs>
</svg>
