<svg width="20" height="20" viewBox="0 0 20 20" fill="none" xmlns="http://www.w3.org/2000/svg">
<g clip-path="url(#clip0_43_161)">
<path d="M15.8335 0H4.22929C3.28421 0 2.45438 0.777477 2.45438 1.69775V18.8639C2.45438 19.172 2.54012 19.4287 2.6783 19.6271C2.84355 19.8642 3.10962 20.0001 3.39494 20C3.66469 20 3.9519 19.8799 4.21712 19.6534L9.40885 15.2453C9.56919 15.1084 9.79952 15.0299 10.039 15.0299C10.2784 15.0299 10.5082 15.1084 10.6691 15.2457L15.8434 19.6527C16.1096 19.8799 16.377 20.0001 16.6463 20.0001C17.1017 20.0001 17.5455 19.6488 17.5455 18.864V1.69775C17.5455 0.777477 16.7786 0 15.8335 0Z" fill="#EEA641"/>
</g>
<defs>
<clipPath id="clip0_43_161">
<rect width="20" height="20" fill="white"/>
</clipPath>
</defs>
</svg>
