<svg width="34" height="34" viewBox="0 0 34 34" fill="none" xmlns="http://www.w3.org/2000/svg">
<g clip-path="url(#clip0_43_180)">
<path d="M16.7934 0C13.4932 0 10.2672 0.978614 7.52318 2.81209C4.77919 4.64557 2.64051 7.25156 1.37759 10.3005C0.114667 13.3495 -0.215771 16.7045 0.428061 19.9412C1.07189 23.178 2.66107 26.1511 4.99465 28.4847C7.32822 30.8183 10.3014 32.4075 13.5381 33.0513C16.7749 33.6951 20.1299 33.3647 23.1788 32.1018C26.2278 30.8388 28.8338 28.7002 30.6673 25.9562C32.5007 23.2122 33.4793 19.9861 33.4793 16.686C33.4793 12.2606 31.7214 8.01643 28.5921 4.8872C25.4629 1.75798 21.2188 0 16.7934 0V0ZM25.3823 12.2949C25.3823 12.4837 25.3976 12.6725 25.3976 12.8679C25.3976 18.7234 20.9385 25.479 12.7822 25.479C10.3688 25.4886 8.00445 24.7977 5.97607 23.4899C6.3278 23.5338 6.68206 23.5544 7.03651 23.5513C9.02581 23.5515 10.958 22.8861 12.5253 21.661C11.6017 21.6337 10.7092 21.3214 9.97019 20.7667C9.23118 20.2121 8.68191 19.4423 8.39773 18.5631C8.67455 18.618 8.95646 18.643 9.23861 18.6378C9.63047 18.6412 10.021 18.5924 10.4 18.4929C9.3978 18.2854 8.49761 17.7391 7.851 16.9457C7.20439 16.1523 6.85085 15.1604 6.84989 14.137V14.0887C7.46379 14.4289 8.15056 14.6164 8.8522 14.6353C7.91217 14.0072 7.24753 13.0438 6.99411 11.942C6.74069 10.8401 6.91764 9.68314 7.48878 8.70743C8.59952 10.0798 9.98734 11.2024 11.5616 12.0018C13.1358 12.8012 14.8609 13.2594 16.6243 13.3466C16.5526 13.0148 16.518 12.6761 16.5212 12.3366C16.5204 11.4474 16.7872 10.5784 17.287 9.84289C17.7868 9.10734 18.4963 8.53921 19.3233 8.21237C20.1504 7.88554 21.0566 7.81514 21.9242 8.01033C22.7918 8.20552 23.5805 8.65727 24.1879 9.30681C25.1791 9.1119 26.1295 8.74879 26.9982 8.2332C26.6704 9.26118 25.9766 10.1331 25.0485 10.6834C25.9289 10.574 26.7889 10.3381 27.6019 9.98303C27.0095 10.8828 26.2572 11.6664 25.3823 12.2949Z" fill="#737373"/>
</g>
<defs>
<clipPath id="clip0_43_180">
<rect width="33.3719" height="33.3719" fill="white" transform="translate(0.107437)"/>
</clipPath>
</defs>
</svg>
