<svg width="100" height="100" viewBox="0 0 100 100" fill="none" xmlns="http://www.w3.org/2000/svg">
<path fill-rule="evenodd" clip-rule="evenodd" d="M50 0C22.3857 0 0 22.3857 0 50C0 77.6143 22.3857 100 50 100C77.6143 100 100 77.6143 100 50C100 22.3857 77.6143 0 50 0ZM50 97.4143C23.8143 97.4143 2.58572 76.1857 2.58572 50C2.58572 23.8143 23.8143 2.58571 50 2.58571C76.1857 2.58571 97.4143 23.8143 97.4143 50C97.4143 76.1857 76.1857 97.4143 50 97.4143Z" fill="white"/>
<path d="M48 8.97144C47.6714 8.97144 47.4 9.24286 47.4 9.57144V16.7143C47.4 17.0429 47.1286 17.3143 46.8 17.3143H43.4C43.0714 17.3143 42.8 17.0429 42.8 16.7143V9.57144C42.8 9.24286 42.5286 8.97144 42.2 8.97144H40.7572C40.4286 8.97144 40.1572 9.24286 40.1572 9.57144V16.7143C40.1572 17.0429 39.8857 17.3143 39.5572 17.3143H36.1572C35.8286 17.3143 35.5572 17.0429 35.5572 16.7143V9.57144C35.5572 9.24286 35.2857 8.97144 34.9572 8.97144H33.5143C33.1857 8.97144 32.9143 9.24286 32.9143 9.57144V19.3429C32.9143 19.6714 33.1857 19.9429 33.5143 19.9429H49.4286C49.7572 19.9429 50.0286 19.6714 50.0286 19.3429V9.57144C50.0286 9.24286 49.7572 8.97144 49.4286 8.97144H47.9857H48Z" fill="white"/>
<path d="M23.8285 30.8284C24.1571 30.8284 24.4285 30.557 24.4285 30.2284V28.7855C24.4285 28.457 24.1571 28.1855 23.8285 28.1855H10.2C9.8714 28.1855 9.59998 28.457 9.59998 28.7855V30.2284C9.59998 30.557 9.8714 30.8284 10.2 30.8284H12.1857C12.5143 30.8284 12.7857 31.0998 12.7857 31.4284V46.8284C12.7857 47.157 12.5143 47.4284 12.1857 47.4284H10.2C9.8714 47.4284 9.59998 47.6998 9.59998 48.0284V49.4713C9.59998 49.7998 9.8714 50.0713 10.2 50.0713H23.8285C24.1571 50.0713 24.4285 49.7998 24.4285 49.4713V48.0284C24.4285 47.6998 24.1571 47.4284 23.8285 47.4284H21.8428C21.5143 47.4284 21.2428 47.157 21.2428 46.8284V31.4284C21.2428 31.0998 21.5143 30.8284 21.8428 30.8284H23.8285ZM18.6143 46.8284C18.6143 47.157 18.3428 47.4284 18.0143 47.4284H16.0143C15.6857 47.4284 15.4143 47.157 15.4143 46.8284V31.4284C15.4143 31.0998 15.6857 30.8284 16.0143 30.8284H18.0143C18.3428 30.8284 18.6143 31.0998 18.6143 31.4284V46.8284Z" fill="white"/>
<path d="M49.4429 33.9855H43.4C43.0715 33.9855 42.8 33.7141 42.8 33.3855V31.4284C42.8 31.0998 43.0715 30.8284 43.4 30.8284H49.4143C49.7429 30.8284 50.0143 30.557 50.0143 30.2284V28.7855C50.0143 28.457 49.7429 28.1855 49.4143 28.1855H33.5429C33.2143 28.1855 32.9429 28.457 32.9429 28.7855V30.2284C32.9429 30.557 33.2143 30.8284 33.5429 30.8284H39.5572C39.8857 30.8284 40.1572 31.0998 40.1572 31.4284V33.3855C40.1572 33.7141 39.8857 33.9855 39.5572 33.9855H33.5143C33.1857 33.9855 32.9143 34.257 32.9143 34.5855V49.3855C32.9143 49.7141 33.1857 49.9855 33.5143 49.9855H34.9572C35.2857 49.9855 35.5572 49.7141 35.5572 49.3855V37.2284C35.5572 36.8998 35.8286 36.6284 36.1572 36.6284H37.1429C37.4714 36.6284 37.7429 36.8998 37.7429 37.2284V49.3855C37.7429 49.7141 38.0143 49.9855 38.3429 49.9855H39.7857C40.1143 49.9855 40.3857 49.7141 40.3857 49.3855V37.2284C40.3857 36.8998 40.6572 36.6284 40.9857 36.6284H41.9714C42.3 36.6284 42.5714 36.8998 42.5714 37.2284V49.3855C42.5714 49.7141 42.8429 49.9855 43.1714 49.9855H44.6143C44.9429 49.9855 45.2143 49.7141 45.2143 49.3855V37.2284C45.2143 36.8998 45.4857 36.6284 45.8143 36.6284H46.8C47.1286 36.6284 47.4 36.8998 47.4 37.2284V49.3855C47.4 49.7141 47.6714 49.9855 48 49.9855H49.4429C49.7715 49.9855 50.0429 49.7141 50.0429 49.3855V34.5855C50.0429 34.257 49.7715 33.9855 49.4429 33.9855Z" fill="white"/>
<path fill-rule="evenodd" clip-rule="evenodd" d="M22.8428 14.4714C22.8428 11.1857 20.1713 8.51428 16.8856 8.51428C13.5999 8.51428 10.9285 11.1857 10.9285 14.4714C10.9285 17.7571 13.5999 20.4286 16.8856 20.4286C20.1713 20.4286 22.8428 17.7571 22.8428 14.4714Z" fill="white"/>
</svg>
