<svg width="16" height="37" viewBox="0 0 16 37" fill="none" xmlns="http://www.w3.org/2000/svg">
<path d="M9.04922 14.7982H6.89458V33.195H9.04922V14.7982Z" fill="#D0D1D2"/>
<path d="M7.97197 15.9439C12.3748 15.9439 15.9439 12.3748 15.9439 7.97197C15.9439 3.56917 12.3748 0 7.97197 0C3.56917 0 0 3.56917 0 7.97197C0 12.3748 3.56917 15.9439 7.97197 15.9439Z" fill="#D2800B"/>
<path d="M7.97128 0.000549316C6.7682 0.000549316 5.6281 0.268653 4.60541 0.745881C7.32554 2.01499 9.21138 4.77282 9.21138 7.97252C9.21138 11.1722 7.32554 13.9299 4.60541 15.1992C5.62824 15.6764 6.7682 15.9445 7.97128 15.9445C12.3741 15.9445 15.9433 12.3753 15.9433 7.97252C15.9433 3.56974 12.3741 0.000549316 7.97128 0.000549316Z" fill="#AA680B"/>
<path d="M11.0577 32.9561H4.88484C3.36973 32.9561 2.14151 34.1843 2.14151 35.6994V36.0377C2.14151 36.2745 2.33351 36.4665 2.57039 36.4665H13.372C13.6089 36.4665 13.8009 36.2745 13.8009 36.0377V35.6994C13.801 34.1843 12.5728 32.9561 11.0577 32.9561Z" fill="#E2EFFA"/>
<path d="M11.0577 32.9561H4.88485C4.87089 32.9561 4.85749 32.958 4.84354 32.9581C6.10257 32.9804 7.11669 34.0062 7.11669 35.2705V36.4667H13.3722C13.6091 36.4667 13.8012 36.2747 13.8012 36.0377V35.6994C13.8011 34.1843 12.5728 32.9561 11.0577 32.9561Z" fill="#D0D1D2"/>
</svg>
